<svg xmlns="http://www.w3.org/2000/svg" xmlns:xlink="http://www.w3.org/1999/xlink" width="150" zoomAndPan="magnify" viewBox="0 0 112.5 44.999999" height="60" preserveAspectRatio="xMidYMid meet" version="1.0"><defs><g/></defs><g fill="#ffffff" fill-opacity="1"><g transform="translate(2.206741, 25.486724)"><g><path d="M 8.46875 -8.296875 L 6.546875 0 L 3.59375 0 L 0.28125 -12.828125 L 3.609375 -12.828125 L 5.3125 -4.484375 L 5.359375 -4.484375 L 7.25 -12.828125 L 9.75 -12.828125 L 11.609375 -4.453125 L 11.640625 -4.453125 L 13.390625 -12.828125 L 16.703125 -12.828125 L 13.3125 0 L 10.4375 0 L 8.515625 -8.296875 Z M 8.46875 -8.296875 "/></g></g></g><g fill="#ffffff" fill-opacity="1"><g transform="translate(18.856291, 25.486724)"><g><path d="M 5.53125 -7.25 C 4.457031 -7.25 3.921875 -6.632812 3.921875 -5.40625 L 3.921875 0 L 1.046875 0 L 1.046875 -12.828125 L 3.921875 -12.828125 L 3.921875 -8.703125 C 4.128906 -9.085938 4.453125 -9.390625 4.890625 -9.609375 C 5.335938 -9.835938 5.84375 -9.953125 6.40625 -9.953125 C 7.519531 -9.953125 8.390625 -9.613281 9.015625 -8.9375 C 9.640625 -8.257812 9.953125 -7.296875 9.953125 -6.046875 L 9.953125 0 L 7.0625 0 L 7.0625 -5.28125 C 7.0625 -6.59375 6.550781 -7.25 5.53125 -7.25 Z M 5.53125 -7.25 "/></g></g></g><g fill="#ffffff" fill-opacity="1"><g transform="translate(29.459302, 25.486724)"><g><path d="M 5.609375 -2.109375 C 5.992188 -2.109375 6.320312 -2.179688 6.59375 -2.328125 C 6.863281 -2.472656 7.117188 -2.703125 7.359375 -3.015625 L 10.3125 -3.015625 C 9.84375 -1.960938 9.195312 -1.144531 8.375 -0.5625 C 7.550781 0.0195312 6.628906 0.3125 5.609375 0.3125 C 4.703125 0.3125 3.859375 0.0859375 3.078125 -0.359375 C 2.296875 -0.816406 1.671875 -1.429688 1.203125 -2.203125 C 0.742188 -2.984375 0.515625 -3.84375 0.515625 -4.78125 C 0.515625 -5.695312 0.738281 -6.550781 1.1875 -7.34375 C 1.644531 -8.132812 2.253906 -8.765625 3.015625 -9.234375 C 3.785156 -9.710938 4.632812 -9.953125 5.5625 -9.953125 C 6.507812 -9.953125 7.367188 -9.71875 8.140625 -9.25 C 8.921875 -8.789062 9.53125 -8.160156 9.96875 -7.359375 C 10.414062 -6.566406 10.640625 -5.679688 10.640625 -4.703125 C 10.640625 -4.421875 10.613281 -4.164062 10.5625 -3.9375 L 3.359375 -3.9375 C 3.441406 -3.394531 3.691406 -2.953125 4.109375 -2.609375 C 4.523438 -2.273438 5.023438 -2.109375 5.609375 -2.109375 Z M 5.5625 -7.515625 C 5.03125 -7.515625 4.5625 -7.367188 4.15625 -7.078125 C 3.757812 -6.785156 3.503906 -6.382812 3.390625 -5.875 L 7.765625 -5.875 C 7.648438 -6.375 7.390625 -6.769531 6.984375 -7.0625 C 6.585938 -7.363281 6.113281 -7.515625 5.5625 -7.515625 Z M 5.5625 -7.515625 "/></g></g></g><g fill="#ffffff" fill-opacity="1"><g transform="translate(40.304867, 25.486724)"><g><path d="M 5.609375 -2.109375 C 5.992188 -2.109375 6.320312 -2.179688 6.59375 -2.328125 C 6.863281 -2.472656 7.117188 -2.703125 7.359375 -3.015625 L 10.3125 -3.015625 C 9.84375 -1.960938 9.195312 -1.144531 8.375 -0.5625 C 7.550781 0.0195312 6.628906 0.3125 5.609375 0.3125 C 4.703125 0.3125 3.859375 0.0859375 3.078125 -0.359375 C 2.296875 -0.816406 1.671875 -1.429688 1.203125 -2.203125 C 0.742188 -2.984375 0.515625 -3.84375 0.515625 -4.78125 C 0.515625 -5.695312 0.738281 -6.550781 1.1875 -7.34375 C 1.644531 -8.132812 2.253906 -8.765625 3.015625 -9.234375 C 3.785156 -9.710938 4.632812 -9.953125 5.5625 -9.953125 C 6.507812 -9.953125 7.367188 -9.71875 8.140625 -9.25 C 8.921875 -8.789062 9.53125 -8.160156 9.96875 -7.359375 C 10.414062 -6.566406 10.640625 -5.679688 10.640625 -4.703125 C 10.640625 -4.421875 10.613281 -4.164062 10.5625 -3.9375 L 3.359375 -3.9375 C 3.441406 -3.394531 3.691406 -2.953125 4.109375 -2.609375 C 4.523438 -2.273438 5.023438 -2.109375 5.609375 -2.109375 Z M 5.5625 -7.515625 C 5.03125 -7.515625 4.5625 -7.367188 4.15625 -7.078125 C 3.757812 -6.785156 3.503906 -6.382812 3.390625 -5.875 L 7.765625 -5.875 C 7.648438 -6.375 7.390625 -6.769531 6.984375 -7.0625 C 6.585938 -7.363281 6.113281 -7.515625 5.5625 -7.515625 Z M 5.5625 -7.515625 "/></g></g></g><g fill="#ffffff" fill-opacity="1"><g transform="translate(51.150432, 25.486724)"><g><path d="M 3.921875 -12.828125 L 3.921875 0 L 1.046875 0 L 1.046875 -12.828125 Z M 3.921875 -12.828125 "/></g></g></g><g fill="#ffffff" fill-opacity="1"><g transform="translate(55.758868, 25.486724)"><g><path d="M 4.25 -7.640625 C 4 -7.640625 3.796875 -7.578125 3.640625 -7.453125 C 3.484375 -7.335938 3.40625 -7.1875 3.40625 -7 C 3.40625 -6.75 3.535156 -6.539062 3.796875 -6.375 C 4.054688 -6.21875 4.53125 -6.050781 5.21875 -5.875 C 6.320312 -5.582031 7.101562 -5.203125 7.5625 -4.734375 C 8.019531 -4.265625 8.25 -3.671875 8.25 -2.953125 C 8.25 -2.285156 8.070312 -1.707031 7.71875 -1.21875 C 7.375 -0.726562 6.90625 -0.347656 6.3125 -0.078125 C 5.71875 0.191406 5.054688 0.328125 4.328125 0.328125 C 3.242188 0.328125 2.347656 0.0390625 1.640625 -0.53125 C 0.929688 -1.113281 0.523438 -1.890625 0.421875 -2.859375 L 3.28125 -2.859375 C 3.320312 -2.566406 3.4375 -2.34375 3.625 -2.1875 C 3.820312 -2.039062 4.066406 -1.96875 4.359375 -1.96875 C 4.628906 -1.96875 4.863281 -2.035156 5.0625 -2.171875 C 5.269531 -2.316406 5.375 -2.5 5.375 -2.71875 C 5.375 -3 5.253906 -3.222656 5.015625 -3.390625 C 4.773438 -3.566406 4.304688 -3.765625 3.609375 -3.984375 C 2.460938 -4.328125 1.660156 -4.726562 1.203125 -5.1875 C 0.753906 -5.65625 0.53125 -6.195312 0.53125 -6.8125 C 0.53125 -7.425781 0.703125 -7.972656 1.046875 -8.453125 C 1.398438 -8.929688 1.863281 -9.300781 2.4375 -9.5625 C 3.007812 -9.820312 3.617188 -9.953125 4.265625 -9.953125 C 5.316406 -9.953125 6.175781 -9.675781 6.84375 -9.125 C 7.507812 -8.582031 7.878906 -7.84375 7.953125 -6.90625 L 5.125 -6.90625 C 5.113281 -7.394531 4.820312 -7.640625 4.25 -7.640625 Z M 4.25 -7.640625 "/></g></g></g><g fill="#ffffff" fill-opacity="1"><g transform="translate(64.057609, 25.486724)"><g><path d="M 5.6875 -7.265625 C 5.039062 -7.265625 4.507812 -7.03125 4.09375 -6.5625 C 3.675781 -6.09375 3.46875 -5.507812 3.46875 -4.8125 C 3.46875 -4.113281 3.679688 -3.53125 4.109375 -3.0625 C 4.535156 -2.601562 5.082031 -2.375 5.75 -2.375 C 6.6875 -2.375 7.378906 -2.800781 7.828125 -3.65625 L 10.765625 -3.65625 C 10.578125 -2.851562 10.238281 -2.15625 9.75 -1.5625 C 9.257812 -0.96875 8.660156 -0.503906 7.953125 -0.171875 C 7.242188 0.148438 6.484375 0.3125 5.671875 0.3125 C 4.734375 0.3125 3.875 0.0820312 3.09375 -0.375 C 2.320312 -0.84375 1.707031 -1.46875 1.25 -2.25 C 0.800781 -3.039062 0.578125 -3.898438 0.578125 -4.828125 C 0.578125 -5.765625 0.800781 -6.625 1.25 -7.40625 C 1.695312 -8.195312 2.304688 -8.816406 3.078125 -9.265625 C 3.859375 -9.722656 4.703125 -9.953125 5.609375 -9.953125 C 6.441406 -9.953125 7.21875 -9.78125 7.9375 -9.4375 C 8.65625 -9.101562 9.257812 -8.632812 9.75 -8.03125 C 10.238281 -7.425781 10.570312 -6.71875 10.75 -5.90625 L 7.828125 -5.90625 C 7.410156 -6.8125 6.695312 -7.265625 5.6875 -7.265625 Z M 5.6875 -7.265625 "/></g></g></g><g fill="#ffffff" fill-opacity="1"><g transform="translate(75.007128, 25.486724)"><g><path d="M 8.234375 -1.046875 C 8.023438 -0.628906 7.660156 -0.296875 7.140625 -0.046875 C 6.617188 0.203125 6.039062 0.328125 5.40625 0.328125 C 4.476562 0.328125 3.644531 0.101562 2.90625 -0.34375 C 2.175781 -0.789062 1.609375 -1.40625 1.203125 -2.1875 C 0.796875 -2.976562 0.59375 -3.851562 0.59375 -4.8125 C 0.59375 -5.75 0.800781 -6.609375 1.21875 -7.390625 C 1.644531 -8.179688 2.222656 -8.804688 2.953125 -9.265625 C 3.691406 -9.722656 4.507812 -9.953125 5.40625 -9.953125 C 6.007812 -9.953125 6.5625 -9.832031 7.0625 -9.59375 C 7.570312 -9.351562 7.960938 -9.019531 8.234375 -8.59375 L 8.265625 -8.59375 L 8.265625 -9.609375 L 11.140625 -9.609375 L 11.140625 0 L 8.265625 0 L 8.265625 -1.046875 Z M 8.265625 -4.8125 C 8.265625 -5.25 8.15625 -5.65625 7.9375 -6.03125 C 7.71875 -6.414062 7.421875 -6.71875 7.046875 -6.9375 C 6.671875 -7.15625 6.265625 -7.265625 5.828125 -7.265625 C 5.398438 -7.265625 5.003906 -7.15625 4.640625 -6.9375 C 4.273438 -6.71875 3.988281 -6.414062 3.78125 -6.03125 C 3.570312 -5.644531 3.46875 -5.226562 3.46875 -4.78125 C 3.46875 -4.34375 3.570312 -3.9375 3.78125 -3.5625 C 4 -3.195312 4.289062 -2.90625 4.65625 -2.6875 C 5.019531 -2.46875 5.421875 -2.359375 5.859375 -2.359375 C 6.296875 -2.359375 6.695312 -2.46875 7.0625 -2.6875 C 7.4375 -2.90625 7.726562 -3.203125 7.9375 -3.578125 C 8.15625 -3.953125 8.265625 -4.363281 8.265625 -4.8125 Z M 8.265625 -4.8125 "/></g></g></g><g fill="#ffffff" fill-opacity="1"><g transform="translate(86.857562, 25.486724)"><g><path d="M 3.75 -9.609375 L 3.75 -8.5625 L 3.796875 -8.5625 C 4.535156 -9.488281 5.539062 -9.953125 6.8125 -9.953125 C 7.707031 -9.953125 8.507812 -9.722656 9.21875 -9.265625 C 9.9375 -8.804688 10.492188 -8.179688 10.890625 -7.390625 C 11.285156 -6.597656 11.484375 -5.707031 11.484375 -4.71875 C 11.484375 -3.800781 11.285156 -2.957031 10.890625 -2.1875 C 10.492188 -1.425781 9.9375 -0.816406 9.21875 -0.359375 C 8.507812 0.0976562 7.707031 0.328125 6.8125 0.328125 C 5.601562 0.328125 4.640625 -0.0664062 3.921875 -0.859375 L 3.921875 3.203125 L 1.046875 3.203125 L 1.046875 -9.609375 Z M 8.609375 -4.796875 C 8.609375 -5.242188 8.5 -5.65625 8.28125 -6.03125 C 8.070312 -6.414062 7.78125 -6.71875 7.40625 -6.9375 C 7.039062 -7.15625 6.632812 -7.265625 6.1875 -7.265625 C 5.75 -7.265625 5.347656 -7.15625 4.984375 -6.9375 C 4.617188 -6.71875 4.328125 -6.414062 4.109375 -6.03125 C 3.898438 -5.65625 3.796875 -5.242188 3.796875 -4.796875 C 3.796875 -4.347656 3.898438 -3.9375 4.109375 -3.5625 C 4.328125 -3.195312 4.617188 -2.90625 4.984375 -2.6875 C 5.347656 -2.46875 5.753906 -2.359375 6.203125 -2.359375 C 6.648438 -2.359375 7.054688 -2.46875 7.421875 -2.6875 C 7.785156 -2.90625 8.070312 -3.203125 8.28125 -3.578125 C 8.5 -3.953125 8.609375 -4.359375 8.609375 -4.796875 Z M 8.609375 -4.796875 "/></g></g></g><g fill="#ffffff" fill-opacity="1"><g transform="translate(98.586724, 25.486724)"><g><path d="M 5.609375 -2.109375 C 5.992188 -2.109375 6.320312 -2.179688 6.59375 -2.328125 C 6.863281 -2.472656 7.117188 -2.703125 7.359375 -3.015625 L 10.3125 -3.015625 C 9.84375 -1.960938 9.195312 -1.144531 8.375 -0.5625 C 7.550781 0.0195312 6.628906 0.3125 5.609375 0.3125 C 4.703125 0.3125 3.859375 0.0859375 3.078125 -0.359375 C 2.296875 -0.816406 1.671875 -1.429688 1.203125 -2.203125 C 0.742188 -2.984375 0.515625 -3.84375 0.515625 -4.78125 C 0.515625 -5.695312 0.738281 -6.550781 1.1875 -7.34375 C 1.644531 -8.132812 2.253906 -8.765625 3.015625 -9.234375 C 3.785156 -9.710938 4.632812 -9.953125 5.5625 -9.953125 C 6.507812 -9.953125 7.367188 -9.71875 8.140625 -9.25 C 8.921875 -8.789062 9.53125 -8.160156 9.96875 -7.359375 C 10.414062 -6.566406 10.640625 -5.679688 10.640625 -4.703125 C 10.640625 -4.421875 10.613281 -4.164062 10.5625 -3.9375 L 3.359375 -3.9375 C 3.441406 -3.394531 3.691406 -2.953125 4.109375 -2.609375 C 4.523438 -2.273438 5.023438 -2.109375 5.609375 -2.109375 Z M 5.5625 -7.515625 C 5.03125 -7.515625 4.5625 -7.367188 4.15625 -7.078125 C 3.757812 -6.785156 3.503906 -6.382812 3.390625 -5.875 L 7.765625 -5.875 C 7.648438 -6.375 7.390625 -6.769531 6.984375 -7.0625 C 6.585938 -7.363281 6.113281 -7.515625 5.5625 -7.515625 Z M 5.5625 -7.515625 "/></g></g></g></svg>